<svg xmlns="http://www.w3.org/2000/svg" xmlns:xlink="http://www.w3.org/1999/xlink" id="Layer_1" x="0px" y="0px" viewBox="0 0 1226 492.6" style="enable-background:new 0 0 1226 492.6;" xml:space="preserve"><style type="text/css">	.st0{fill-rule:evenodd;clip-rule:evenodd;fill:url(#SVGID_1_);}	.st1{fill:#FFFFFF;}</style><g>	<linearGradient id="SVGID_1_" gradientUnits="userSpaceOnUse" x1="42.5526" y1="424.696" x2="463.8502" y2="3.3984">		<stop offset="5.582458e-04" style="stop-color:#EC2BF7"></stop>		<stop offset="1" style="stop-color:#812BF7"></stop>	</linearGradient>	<path class="st0" d="M205.1,121.1c9.3,0,16.8,7.6,16.8,16.9c0,9.3-7.5,16.9-16.8,16.9c-9.3,0-16.9-7.6-16.9-16.9  C188.3,128.7,195.8,121.1,205.1,121.1 M118.1,275.3C68,275.3,24,248.2,0,207.9h41.8c19,20.7,46.2,33.7,76.3,33.7h2.7V184v-46.1  c0-75.6,61.8-137.4,137.4-137.4h98.5h5.2h33.7v33.7v103.7c0,75.6-61.8,137.4-137.4,137.4h-98.5h-5.2v16.9V310v98.3  c0,27.7,22.8,50.6,50.6,50.6c27.7,0,50.6-22.8,50.6-50.6v-24.8v-33.6c0-9.3-7.6-16.9-16.9-16.9c-9.3,0-16.9,7.5-16.9,16.9v33.6  v24.8c0,9.1-7.7,16.9-16.8,16.9c-9.2,0-16.9-7.7-16.9-16.9v-58.4c0-22,14.1-40.8,33.7-47.7c5.3-1.9,11-2.9,16.9-2.9  c5.9,0,11.6,1,16.9,2.9c19.6,6.9,33.7,25.7,33.7,47.7v58.4c0,46.4-37.9,84.3-84.3,84.3c-46.4,0-84.3-37.9-84.3-84.3v-69.7V310  v-17.8v-16.9H118.1z M154.5,241.6h103.7c57,0,103.7-46.7,103.7-103.7V48V34.2h-13.8h-89.9c-57,0-103.7,46.7-103.7,103.7V241.6z"></path>	<g>		<g>			<path class="st1" d="M534.4,140.5L618,5.7v170.6h-10V41.8h-0.5l-72.7,116.6h-1.4L461,41.8h-0.5v134.6h-10V5.7L534.4,140.5z"></path>			<path class="st1" d="M685.2,4.3v172.1h-10.3V4.3H685.2z"></path>			<path class="st1" d="M728,90.3C726.8,41.1,762.1-0.2,816.6,0c20.8,0,38.7,5.5,53.3,16.5v11.7c-15.1-12.4-32.7-18.6-53.5-18.6    c-49.5-0.2-79.1,37.3-78.2,80.8c-1,43.5,28.7,81,78.2,80.8c20.8,0,38.5-6.2,53.5-18.6v11.7c-14.6,11-32.5,16.5-53.3,16.5    C762.1,181.2,726.8,139.6,728,90.3z"></path>			<path class="st1" d="M1027.7,176.4h-13.1l-68.6-81.5h-20.3l-0.2-10h48c28.7,0,42.5-11.2,42.5-35.1c0-23.9-13.9-35.4-42.5-35.4    h-48v162h-10V4.3h57.1c36.3,0,54,16.7,54,45.4c0,28.4-17.4,45.2-53.1,45.2h-14.1L1027.7,176.4z"></path>			<path class="st1" d="M1136.9,0c34.2,0,62.9,17.4,77.9,44.9c7.4,13.6,11.2,28.9,11.2,45.4c0,16.5-3.8,31.8-11.2,45.4    c-15.1,27.5-43.7,44.9-78.2,44.9c-51.1,0.7-90.3-41.1-89.1-90.3C1047.5,40.4,1084.5,0,1136.9,0z M1215.8,90.3    c0-29.6-14.1-55.7-38.2-70c-12.2-7.4-25.8-11-40.9-11s-28.4,3.6-40.6,11c-24.1,14.3-38.2,40.4-38.2,70c-1,44,33.7,81.7,79.1,81    C1182.5,171.4,1215.8,135,1215.8,90.3z"></path>		</g>		<g>			<path class="st1" d="M478.3,229.5v172.1h-28.2V229.5H478.3z"></path>			<path class="st1" d="M521.6,401.6V229.5h54.3c28.9,0,51.1,7.6,67.2,22.9c16,15.1,24.1,36.1,24.1,63.1s-7.9,48.3-23.9,63.3    c-16,15.1-38.5,22.7-67.4,22.7H521.6z M550.2,376.9h25.6c41.8,0,62.6-20.6,62.6-61.4c0-41.3-22.2-61.4-62.6-61.4h-25.6V376.9z"></path>			<path class="st1" d="M814.1,229.5V255h-84.8v46.4H806V327h-76.7v49h84.8v25.6H700.6V229.5H814.1z"></path>			<path class="st1" d="M958.7,401.6l-14.1-39h-69.1l-14.1,39h-30.4l67.2-172.8h23.7l67.4,172.8H958.7z M884.6,337.7h50.9L910.2,267    L884.6,337.7z"></path>		</g>	</g></g></svg>