<?xml version="1.0" encoding="utf-8"?>
<!-- Generator: Adobe Illustrator 27.2.0, SVG Export Plug-In . SVG Version: 6.00 Build 0)  -->
<svg version="1.1" id="Layer_1" xmlns="http://www.w3.org/2000/svg" xmlns:xlink="http://www.w3.org/1999/xlink" x="0px" y="0px"
	 viewBox="0 0 604 457.8" style="enable-background:new 0 0 604 457.8;" xml:space="preserve">
<style type="text/css">
	.st0{fill:#FFFFFF;}
	.st1{fill:#F05A28;}
</style>
<g>
	<g>
		<path class="st0" d="M0,350.6v-84h61.4v22.9H31v7h25.6v21.9H31v9h31.7v23.1H0z"/>
		<path class="st0" d="M155.4,266.7v47.5c0,11.5-3.3,20.8-10.1,27.8c-6.8,7-16.7,10.5-29.9,10.5c-13.8,0-23.8-3.3-30.3-10.1
			c-6.5-6.8-9.7-15.7-9.7-27v-48.7h31.2V316c0,7.5,2.9,11.3,8.9,11.3c5.7,0,8.8-5.4,8.8-10.4v-50.2H155.4z"/>
		<path class="st1" d="M216.6,350.6L214,344h-24.7l-2.7,6.6h-29.4l44-86.5h3.1l42.8,86.5H216.6z M201.8,314.1l-5.7,12.9h11.6
			l-5.4-12.9H201.8z"/>
		<path class="st1" d="M285.7,327.6h31.6v23.1h-62.6v-84h31V327.6z"/>
		<path class="st1" d="M371,303.5l42.6-39.2h2.8v86.4h-30.1v-29.3h-0.5l-13.1,14.3h-3.3l-13.9-13.8H355v28.8h-29.8v-86.4h2.9
			L371,303.5z"/>
		<path class="st1" d="M494.6,315.8c-5.6,5.6-13.5,8.4-23.6,8.4h-8.2v26.4h-31v-84h37c11.2,0,19.8,2.8,25.5,8.4
			c5.7,5.5,8.7,12.4,8.7,20.4C503,303.4,500.2,310.1,494.6,315.8z M465.2,288.8h-2.5v13.9h2.5c5.2,0,7.5-3.3,7.5-6.9
			C472.7,291.8,470.2,288.8,465.2,288.8z"/>
		<path class="st1" d="M522.6,339.9c-8.7-8.3-13-18.7-13-31.3c0-12.4,4.3-22.8,13.1-31.2c8.8-8.4,20.3-12.6,34.2-12.6
			c14,0,25.4,4.2,34,12.6c8.8,8.3,13.1,18.7,13.1,31.2s-4.5,22.9-13.4,31.3c-8.8,8.3-20.1,12.5-34,12.5
			C542.6,352.4,531.3,348.2,522.6,339.9z M573.6,308.6c0-10.8-6.1-18.9-16.4-18.9c-10.1,0-16.7,8.2-16.7,18.9
			c0,11.2,6.9,19.4,16.7,19.4C567.2,327.9,573.6,319.9,573.6,308.6z"/>
	</g>
	<g>
		<path class="st1" d="M178.3,0v247.4c0-46.7,38-84.7,84.7-84.7c14.1,0,27.3,3.5,39,9.6c11.7-6.1,24.9-9.6,39-9.6
			c46.7,0,84.7,38,84.7,84.7V0H178.3z"/>
		<path class="st0" d="M341,162.7c-14.1,0-27.3,3.5-39,9.6c-11.7-6.1-24.9-9.6-39-9.6c-46.7,0-84.7,38-84.7,84.7h36.3
			c0-26.7,21.7-48.5,48.5-48.5c2.7,0,5.4,0.3,8,0.7c-9.3,13.6-14.8,30-14.8,47.8h36.3c0-10.7,3.6-20.7,9.5-28.7
			c5.9,8,9.5,18,9.5,28.7h36.3c0-17.7-5.5-34.1-14.8-47.8c2.6-0.4,5.3-0.7,8-0.7c26.7,0,48.5,21.7,48.5,48.5h36.3
			C425.7,200.7,387.7,162.7,341,162.7z"/>
		<g>
			<path class="st0" d="M192.3,139c0-60.7,49.2-110.1,109.7-110.1c60.5,0,109.7,49.4,109.7,110.1c0,0.4,0,0.7,0,1.1l0,0.1l-3.9,0
				l0-0.1c0-0.4,0-0.7,0-1.1c0-58.5-47.4-106.2-105.7-106.2c-58.3,0-105.7,47.6-105.7,106.2c0,0.3,0,0.7,0,1l0,0.2l-3.9,0l0-0.2
				C192.3,139.8,192.3,139.4,192.3,139z"/>
			<path class="st0" d="M204,138.5c0-1-0.2-2-0.6-2.9l36.2-30.9c0.7,0.4,1.5,0.7,2.3,0.8l7.6,30.3c-1.5,1-2.5,2.7-2.5,4.6
				c0,2.9,2.2,5.2,5,5.5l0.3,1.2l0.4-1.2c2.9-0.1,5.3-2.5,5.3-5.5c0-1.8-0.9-3.4-2.2-4.4l17.6-55.8c0.2-0.1,0.5-0.2,0.7-0.3
				l22.6,17.7c-0.2,0.5-0.3,1.1-0.3,1.7c0,3,2.5,5.5,5.5,5.5c3,0,5.5-2.5,5.5-5.5c0-1-0.2-1.9-0.7-2.6l15.5-24.8
				c0.8,0.3,1.6,0.4,2.4,0.4c2,0,3.8-0.8,5.2-2l27.2,27.4c-0.3,0.7-0.5,1.5-0.5,2.4c0,1.6,0.7,3.1,1.8,4.1l0.5,0.2l-8,31.8
				c-2.1,0.3-3.8,2.1-3.8,4.3c0,2.4,1.9,4.3,4.3,4.3c2.4,0,4.3-1.9,4.3-4.3c0-1.4-0.7-2.7-1.8-3.5l7.9-31.4c0.1,0,0.2,0,0.2,0
				c0.1,0,0.2,0,0.3,0l11.5,27c-1.9,1.4-3.1,3.6-3.1,6.1c0,4.2,3.4,7.7,7.7,7.7c4.2,0,7.7-3.4,7.7-7.7c0-4.2-3.4-7.7-7.7-7.7
				c-0.4,0-0.8,0-1.2,0.1l-10.5-24.6l34,28.8c-0.5,1-0.8,2.2-0.8,3.4c0,4.2,3.4,7.7,7.7,7.7c4.2,0,7.7-3.4,7.7-7.7
				c0-4.2-3.4-7.7-7.7-7.7c-1.7,0-3.2,0.5-4.5,1.5l-35.9-30.4c0.2-0.6,0.4-1.2,0.4-1.9l25.5-8.8c0.9,1,2.1,1.6,3.5,1.6
				c2.6,0,4.7-2.1,4.7-4.7c0-2.6-2.1-4.7-4.7-4.7c-2.5,0-4.5,1.9-4.7,4.4l-25.5,8.8c-0.5-0.6-1.1-1.1-1.8-1.5l4.7-35.6
				c4-0.8,7.1-4.3,7.1-8.6c0-4.8-3.9-8.7-8.7-8.7c-4.8,0-8.7,3.9-8.7,8.7c0,0.1,0,0.3,0,0.4l-27.6,9.2c-1.4-2.2-3.8-3.6-6.5-3.6
				c-0.9,0-1.7,0.2-2.5,0.4l-21.6-21.7c0.9-1.4,1.4-3,1.4-4.7c0-4.8-3.9-8.7-8.7-8.7c-4.8,0-8.7,3.9-8.7,8.7c0,2.2,0.8,4.2,2.2,5.8
				l-14.9,32.7c0,0-0.1,0-0.1,0c-1.6,0-3,0.7-4,1.7L247,59.2c0.6-1.5,0.9-3.1,0.9-4.7c0-6.8-5.5-12.4-12.4-12.4
				c-6.8,0-12.4,5.5-12.4,12.4c0,6.8,5.5,12.4,12.4,12.4c3.8,0,7.3-1.8,9.6-4.5l21.2,12.1c0,0.1,0,0.3,0,0.4c0,0.7,0.1,1.3,0.3,1.9
				l-21.5,18.4c-0.8-0.4-1.7-0.7-2.7-0.7c-1.9,0-3.6,1-4.6,2.5l-25.8-6.1c-0.2-2.9-2.5-5.2-5.5-5.2c-3,0-5.5,2.5-5.5,5.5
				c0,3,2.5,5.5,5.5,5.5c1.8,0,3.5-0.9,4.5-2.3l25.9,6.2c0,0.5,0.2,0.9,0.3,1.3l-36,30.8c-1.3-1.1-3.1-1.8-4.9-1.8
				c-4.2,0-7.7,3.4-7.7,7.7c0,4.2,3.4,7.7,7.7,7.7C200.6,146.1,204,142.7,204,138.5z M359.8,54.7c1.1,2.3,3.3,4,5.8,4.6L361,94.5
				c-0.4,0.1-0.8,0.2-1.2,0.4L332,67.1c0.3-0.8,0.4-1.7,0.4-2.6c0-0.2,0-0.4,0-0.6L359.8,54.7z M275.3,70.6l14.4-31.8
				c1.1,0.5,2.3,0.8,3.6,0.8c1.8,0,3.4-0.5,4.8-1.5l21,21.1c-1.3,1.4-2,3.2-2,5.2c0,0.5,0.1,1.1,0.2,1.6l-40.6,6.4
				C276.4,71.8,275.9,71.1,275.3,70.6z M277.1,76.1l41.8-6.6c0.1,0.1,0.2,0.2,0.3,0.3l-15.2,24.3c-0.6-0.3-1.3-0.4-2-0.4
				c-1.1,0-2.1,0.3-3,0.9l-22.3-17.4C276.9,76.8,277,76.5,277.1,76.1z M247.9,99.9c0-0.7-0.1-1.4-0.4-2.1l21.4-18.3
				c0.2,0.2,0.5,0.3,0.8,0.4l-16.9,53.6l-7.3-29.1C246.9,103.5,247.9,101.8,247.9,99.9z"/>
		</g>
		<g>
			<g>
				<circle class="st0" cx="349.1" cy="138.4" r="18.4"/>
				<circle class="st0" cx="254.9" cy="138.4" r="18.4"/>
			</g>
		</g>
	</g>
	<g>
		<g>
			<path class="st0" d="M98.6,402.2v4.8H79.1v-27.5h18.6v4.8H85.3v6.1h11.1v4.6H85.3v7.2H98.6z"/>
			<path class="st0" d="M121.4,379.5h6.2v16.6c0,3.4-1,6.1-3,8.3c-2,2.1-5,3.1-8.8,3.1c-7.8,0-11.8-4.4-11.8-11.3v-16.7h6.2v16.7
				c0,3.5,2,6.2,5.6,6.2c3.6,0,5.6-2.6,5.6-6V379.5z"/>
			<path class="st0" d="M161.3,407l-1.9-4.3h-10.6L147,407h-6.2l13.1-28h0.9l12.9,28H161.3z M154.2,390.8l-3.4,7.6h6.8l-3.3-7.6
				H154.2z"/>
			<path class="st0" d="M185,388.7v4.6c-1.1-0.7-2.5-1-4-1c-3.2,0-5.5,2.1-5.5,5.5c0,3.3,2,5.3,5.3,5.3c1.7,0,3.3-0.4,4.8-1.3v4.5
				c-1.5,0.8-3.5,1.3-6.1,1.3c-3,0-5.4-0.9-7.1-2.7c-1.7-1.8-2.5-4.1-2.5-6.9c0-3,1-5.4,2.8-7.3c1.9-1.9,4.4-2.8,7.4-2.8
				C182,387.9,183.6,388.2,185,388.7z"/>
			<path class="st0" d="M196,382.4h0.9v6.1h5v4.2h-5v7.4c0,2,0.7,2.9,2.4,2.9c1,0,2-0.3,3.2-1v4.3c-1.4,0.9-3,1.3-4.9,1.3
				c-4.2,0-6.3-2.2-6.3-6.5v-8.3h-2.9v-3.1l3.5-1.1L196,382.4z"/>
			<path class="st0" d="M206.6,382.3c0-1.7,1.5-3.1,3.1-3.1c1.8,0,3.1,1.4,3.1,3.1c0,1.7-1.3,3.1-3.1,3.1
				C207.9,385.4,206.6,384,206.6,382.3z M212.5,407h-5.7v-18.6h5.7V407z"/>
			<path class="st0" d="M227.3,407.4h-1l-10-18.9h6.1l2,4.1l2.4,5.1h0.2c0.1-0.3,0.8-1.8,1.9-4.2l2.3-5h6.2L227.3,407.4z"/>
			<path class="st0" d="M258,397.6v1.3h-13.2c0.3,2.9,2.2,4.4,5.6,4.4c2.3,0,4.5-0.7,6.7-2.2v4.5c-2,1.3-4.5,2-7.3,2
				c-3.4,0-6-0.9-7.9-2.8c-1.8-1.8-2.7-4.2-2.7-7.1c0-2.8,0.9-5.1,2.7-7c1.8-1.9,4.1-2.8,6.9-2.8C254.5,387.9,258,391.6,258,397.6z
				 M244.9,395.3h7.9c-0.5-2.3-1.8-3.4-3.8-3.4C247,391.9,245.4,393.3,244.9,395.3z"/>
			<path class="st0" d="M272.3,379.5h6.2v22.7h12.7v4.8h-18.9V379.5z"/>
			<path class="st0" d="M307.4,404.9h-0.1c-1.5,1.8-3.7,2.6-6.6,2.6c-4,0-6.1-2.3-6.1-5.3c0-3.8,2.9-6.5,8.7-6.5h3.6v-0.4
				c0-2.3-1.4-3.4-4.3-3.4c-1.9,0-3.8,0.5-5.8,1.6v-4.2c2.1-1,4.5-1.4,7.1-1.4c5.6,0,8.5,2.7,8.5,8V407h-4.7L307.4,404.9z
				 M302.9,403.7c2.5,0,4-1.8,4-4.1v-0.7h-2.9c-2.6,0-4,0.8-4,2.5C300,402.8,301.2,403.7,302.9,403.7z"/>
			<path class="st0" d="M323.4,390.2h0.1c1.4-1.5,3.3-2.3,5.8-2.3c2.8,0,5,0.9,6.8,2.7c1.7,1.8,2.6,4.2,2.6,7.1
				c0,2.8-0.9,5.2-2.7,7.1c-1.8,1.8-4.1,2.8-7.1,2.8c-2.3,0-5-0.8-6.4-2.7h-0.2l-0.6,2.2h-3.9v-29.7h5.5V390.2z M328.4,403
				c2.9,0,4.9-2.3,4.9-5.3c0-3-2-5.3-4.8-5.3c-3,0-4.8,2.3-4.8,5.3C323.7,401,325.5,403,328.4,403z"/>
			<path class="st0" d="M360.4,390.7c1.9,1.8,2.8,4.2,2.8,7c0,2.8-1,5.2-2.9,7c-1.9,1.8-4.4,2.8-7.5,2.8c-3.2,0-5.8-0.9-7.6-2.7
				c-1.9-1.8-2.8-4.2-2.8-7.1c0-2.8,1-5.1,2.9-7c2-1.9,4.5-2.8,7.5-2.8C356,387.9,358.5,388.8,360.4,390.7z M348.1,397.6
				c0,3.2,1.8,5.3,4.8,5.3c3,0,4.9-2.3,4.9-5.3c0-3-1.9-5.2-4.9-5.2C350,392.4,348.1,394.7,348.1,397.6z"/>
			<path class="st0" d="M372.8,391.4h0.2c1.1-2.2,3.2-3.5,5.5-3.5c0.9,0,1.7,0.1,2.4,0.4v5.1c-0.9-0.4-1.9-0.6-2.8-0.6
				c-2.7,0-4.6,2.3-4.6,5.9v8.2h-5.6v-18.6h4.2L372.8,391.4z"/>
			<path class="st0" d="M408.8,402h-0.9l-7.7-8.4c0,0-0.1,0-0.1,0V407h-6v-28h0.9l13.3,15.4l13.3-15.4h0.9v28h-6v-13.4
				c0,0-0.1,0-0.2,0L408.8,402z"/>
			<path class="st0" d="M440.6,404.9h-0.1c-1.5,1.8-3.7,2.6-6.6,2.6c-4,0-6.1-2.3-6.1-5.3c0-3.8,2.9-6.5,8.7-6.5h3.6v-0.4
				c0-2.3-1.4-3.4-4.3-3.4c-1.9,0-3.8,0.5-5.8,1.6v-4.2c2.1-1,4.5-1.4,7.1-1.4c5.6,0,8.5,2.7,8.5,8V407H441L440.6,404.9z
				 M436.1,403.7c2.5,0,4-1.8,4-4.1v-0.7h-2.9c-2.6,0-4,0.8-4,2.5C433.2,402.8,434.4,403.7,436.1,403.7z"/>
			<path class="st0" d="M456.2,391.4h0.2c1.1-2.2,3.2-3.5,5.5-3.5c0.9,0,1.7,0.1,2.4,0.4v5.1c-0.9-0.4-1.9-0.6-2.8-0.6
				c-2.7,0-4.6,2.3-4.6,5.9v8.2h-5.6v-18.6h4.2L456.2,391.4z"/>
			<path class="st0" d="M486.9,388.5l-7.7,8.8l8.3,9.7h-6.4l-7.4-9.1v9.1h-5.8v-29.7h5.8v19.4l7.1-8.3H486.9z"/>
			<path class="st0" d="M507.8,397.6v1.3h-13.2c0.3,2.9,2.2,4.4,5.6,4.4c2.3,0,4.5-0.7,6.7-2.2v4.5c-2,1.3-4.5,2-7.3,2
				c-3.4,0-6-0.9-7.9-2.8c-1.8-1.8-2.7-4.2-2.7-7.1c0-2.8,0.9-5.1,2.7-7c1.8-1.9,4.1-2.8,6.9-2.8
				C504.3,387.9,507.8,391.6,507.8,397.6z M494.8,395.3h7.9c-0.5-2.3-1.8-3.4-3.8-3.4C496.8,391.9,495.3,393.3,494.8,395.3z"/>
			<path class="st0" d="M518.4,382.4h0.9v6.1h5v4.2h-5v7.4c0,2,0.7,2.9,2.4,2.9c1,0,2-0.3,3.2-1v4.3c-1.4,0.9-3,1.3-4.9,1.3
				c-4.2,0-6.3-2.2-6.3-6.5v-8.3h-2.9v-3.1l3.5-1.1L518.4,382.4z"/>
			<path class="st0" d="M106.5,448.7v-27.5h10.6c3.3,0,5.9,0.9,7.7,2.7c1.8,1.8,2.7,4,2.7,6.5c0,2.7-1,4.9-2.8,6.7
				c-1.9,1.8-4.3,2.7-7.3,2.7h-4.6v8.9H106.5z M112.7,425.9v9.3h3.3c3.8,0,5.3-2.1,5.3-4.6c0-2.6-1.8-4.7-5.3-4.7H112.7z"/>
			<path class="st0" d="M148.3,432.4c1.9,1.8,2.8,4.2,2.8,7c0,2.8-1,5.2-2.9,7c-1.9,1.8-4.4,2.8-7.5,2.8c-3.2,0-5.8-0.9-7.6-2.7
				c-1.9-1.8-2.8-4.2-2.8-7.1c0-2.8,1-5.1,2.9-7c2-1.9,4.5-2.8,7.5-2.8C143.9,429.6,146.4,430.5,148.3,432.4z M136,439.3
				c0,3.2,1.8,5.3,4.8,5.3c3,0,4.9-2.3,4.9-5.3c0-3-1.9-5.2-4.9-5.2C138,434.1,136,436.4,136,439.3z"/>
			<path class="st0" d="M161.6,448.7h-5.7v-29.7h5.7V448.7z"/>
			<path class="st0" d="M167.1,424c0-1.7,1.5-3.1,3.1-3.1c1.8,0,3.1,1.4,3.1,3.1c0,1.7-1.3,3.1-3.1,3.1
				C168.4,427.1,167.1,425.7,167.1,424z M173,448.7h-5.7v-18.6h5.7V448.7z"/>
			<path class="st0" d="M192.9,430.4v4.6c-1.1-0.7-2.5-1-4-1c-3.2,0-5.5,2.1-5.5,5.5c0,3.3,2,5.3,5.3,5.3c1.7,0,3.3-0.4,4.8-1.3v4.5
				c-1.5,0.8-3.5,1.3-6.1,1.3c-3,0-5.4-0.9-7.1-2.7c-1.7-1.8-2.5-4.1-2.5-6.9c0-3,1-5.4,2.8-7.3c1.9-1.9,4.4-2.8,7.4-2.8
				C189.9,429.6,191.5,429.9,192.9,430.4z"/>
			<path class="st0" d="M198,424c0-1.7,1.5-3.1,3.1-3.1c1.8,0,3.1,1.4,3.1,3.1c0,1.7-1.3,3.1-3.1,3.1C199.3,427.1,198,425.7,198,424
				z M203.9,448.7h-5.7v-18.6h5.7V448.7z"/>
			<path class="st0" d="M227.5,439.3v1.3h-13.2c0.3,2.9,2.2,4.4,5.6,4.4c2.3,0,4.5-0.7,6.7-2.2v4.5c-2,1.3-4.5,2-7.3,2
				c-3.4,0-6-0.9-7.9-2.8c-1.8-1.8-2.7-4.2-2.7-7.1c0-2.8,0.9-5.1,2.7-7c1.8-1.9,4.1-2.8,6.9-2.8C224,429.6,227.5,433.3,227.5,439.3
				z M214.4,437h7.9c-0.5-2.3-1.8-3.4-3.8-3.4C216.5,433.6,214.9,435,214.4,437z"/>
			<path class="st0" d="M231.1,442.8c1.8,1.4,4.5,2.3,6.4,2.3c1.8,0,2.8-0.5,2.8-1.5c0-2.7-8.7-2.9-8.7-8.5c0-3.3,2.8-5.5,7-5.5
				c2,0,4.1,0.4,6.1,1.3v4.5c-1.8-1-3.6-1.5-5.3-1.5c-1.5,0-2.3,0.5-2.3,1.4c0,2.1,8.6,2.3,8.6,8.3c0,3.2-2.7,5.7-7.6,5.7
				c-2.8,0-5.1-0.5-7-1.6V442.8z"/>
			<path class="st0" d="M262.7,445.2c-2.7-2.7-4-6.1-4-10.2c0-4,1.4-7.4,4.2-10.1c2.8-2.8,6.4-4.1,10.6-4.1c4.3,0,7.8,1.4,10.6,4.1
				c2.8,2.7,4.1,6.1,4.1,10.1c0,4-1.4,7.5-4.2,10.2c-2.8,2.7-6.3,4-10.6,4C269,449.2,265.4,447.9,262.7,445.2z M267.3,428.5
				c-1.6,1.8-2.4,3.9-2.4,6.5c0,2.7,0.8,4.9,2.3,6.6c1.6,1.8,3.7,2.6,6.3,2.6c2.5,0,4.6-0.9,6.2-2.7c1.6-1.8,2.4-4,2.4-6.6
				c0-2.6-0.8-4.8-2.4-6.5c-1.5-1.8-3.6-2.6-6.2-2.6C271,425.8,269,426.7,267.3,428.5z"/>
			<path class="st0" d="M299,431.9h0.1c1.4-1.5,3.3-2.3,5.8-2.3c2.8,0,5,0.9,6.8,2.7c1.7,1.8,2.6,4.2,2.6,7.1c0,2.8-0.9,5.2-2.7,7.1
				c-1.8,1.8-4.1,2.8-7.1,2.8c-2.3,0-5-0.8-6.4-2.7H298l-0.6,2.2h-3.9v-29.7h5.5V431.9z M304,444.7c2.9,0,4.9-2.3,4.9-5.3
				c0-3-2-5.3-4.8-5.3c-3,0-4.8,2.3-4.8,5.3C299.3,442.7,301.1,444.7,304,444.7z"/>
			<path class="st0" d="M317.8,442.8c1.8,1.4,4.5,2.3,6.4,2.3c1.8,0,2.8-0.5,2.8-1.5c0-2.7-8.7-2.9-8.7-8.5c0-3.3,2.8-5.5,7-5.5
				c2,0,4.1,0.4,6.1,1.3v4.5c-1.8-1-3.6-1.5-5.3-1.5c-1.5,0-2.3,0.5-2.3,1.4c0,2.1,8.6,2.3,8.6,8.3c0,3.2-2.7,5.7-7.6,5.7
				c-2.8,0-5.1-0.5-7-1.6V442.8z"/>
			<path class="st0" d="M354.6,439.3v1.3h-13.2c0.3,2.9,2.2,4.4,5.6,4.4c2.3,0,4.5-0.7,6.7-2.2v4.5c-2,1.3-4.5,2-7.3,2
				c-3.4,0-6-0.9-7.9-2.8c-1.8-1.8-2.7-4.2-2.7-7.1c0-2.8,0.9-5.1,2.7-7c1.8-1.9,4.1-2.8,6.9-2.8
				C351.1,429.6,354.6,433.3,354.6,439.3z M341.6,437h7.9c-0.5-2.3-1.8-3.4-3.8-3.4C343.6,433.6,342.1,435,341.6,437z"/>
			<path class="st0" d="M364.4,433.1h0.2c1.1-2.2,3.2-3.5,5.5-3.5c0.9,0,1.7,0.1,2.4,0.4v5.1c-0.9-0.4-1.9-0.6-2.8-0.6
				c-2.7,0-4.6,2.3-4.6,5.9v8.2h-5.6v-18.6h4.2L364.4,433.1z"/>
			<path class="st0" d="M386.1,449.1h-1l-10-18.9h6.1l2,4.1l2.4,5.1h0.2c0.1-0.3,0.8-1.8,1.9-4.2l2.3-5h6.2L386.1,449.1z"/>
			<path class="st0" d="M410.9,446.6h-0.1c-1.5,1.8-3.7,2.6-6.6,2.6c-4,0-6.1-2.3-6.1-5.3c0-3.8,2.9-6.5,8.7-6.5h3.6V437
				c0-2.3-1.4-3.4-4.3-3.4c-1.9,0-3.8,0.5-5.8,1.6V431c2.1-1,4.5-1.4,7.1-1.4c5.6,0,8.5,2.7,8.5,8v11.1h-4.7L410.9,446.6z
				 M406.5,445.4c2.5,0,4-1.8,4-4.1v-0.7h-2.9c-2.6,0-4,0.8-4,2.5C403.5,444.5,404.7,445.4,406.5,445.4z"/>
			<path class="st0" d="M427.3,424.1h0.9v6.1h5v4.2h-5v7.4c0,2,0.7,2.9,2.4,2.9c1,0,2-0.3,3.2-1v4.3c-1.4,0.9-3,1.3-4.9,1.3
				c-4.2,0-6.3-2.2-6.3-6.5v-8.3h-2.9v-3.1l3.5-1.1L427.3,424.1z"/>
			<path class="st0" d="M454.8,432.4c1.9,1.8,2.8,4.2,2.8,7c0,2.8-1,5.2-2.9,7c-1.9,1.8-4.4,2.8-7.5,2.8c-3.2,0-5.8-0.9-7.6-2.7
				c-1.9-1.8-2.8-4.2-2.8-7.1c0-2.8,1-5.1,2.9-7c2-1.9,4.5-2.8,7.5-2.8C450.4,429.6,452.9,430.5,454.8,432.4z M442.5,439.3
				c0,3.2,1.8,5.3,4.8,5.3c3,0,4.9-2.3,4.9-5.3c0-3-1.9-5.2-4.9-5.2C444.4,434.1,442.5,436.4,442.5,439.3z"/>
			<path class="st0" d="M467.2,433.1h0.2c1.1-2.2,3.2-3.5,5.5-3.5c0.9,0,1.7,0.1,2.4,0.4v5.1c-0.9-0.4-1.9-0.6-2.8-0.6
				c-2.7,0-4.6,2.3-4.6,5.9v8.2h-5.6v-18.6h4.2L467.2,433.1z"/>
			<path class="st0" d="M487.6,442h0.3l4.3-11.8h5.6L486,457.8h-5.5l4.5-10.2l-7.4-17.4h5.7L487.6,442z"/>
		</g>
	</g>
</g>
</svg>
